<?xml version="1.0" standalone="no"?>
<!DOCTYPE svg PUBLIC "-//W3C//DTD SVG 20010904//EN"
 "http://www.w3.org/TR/2001/REC-SVG-20010904/DTD/svg10.dtd">
<svg version="1.0" xmlns="http://www.w3.org/2000/svg"
 width="440.000000pt" height="440.000000pt" viewBox="0 0 440.000000 440.000000"
 preserveAspectRatio="xMidYMid meet">

<g transform="translate(0.000000,440.000000) scale(0.100000,-0.100000)"
fill="#000000" stroke="none">
<path d="M1004 2955 c-137 -30 -235 -102 -285 -209 -76 -163 -32 -324 114
-414 52 -32 67 -36 140 -40 63 -3 97 1 146 17 l64 20 -39 -40 c-111 -114 -366
-255 -558 -308 -188 -53 -317 -51 -372 4 -40 40 -27 132 26 185 l22 22 14 -21
c19 -26 46 -27 68 -2 27 29 17 65 -18 69 -88 10 -186 -111 -186 -231 0 -33 7
-46 43 -82 56 -57 102 -69 237 -62 244 12 467 134 765 418 49 48 108 94 130
104 89 38 87 41 29 -58 -62 -107 -98 -203 -98 -268 0 -127 152 -174 243 -75
31 33 22 33 -25 1 -36 -24 -87 -32 -111 -17 -6 4 -17 20 -23 36 -17 46 11 133
103 319 45 92 79 167 76 167 -4 0 -55 -20 -115 -45 -59 -25 -108 -45 -110 -45
-2 0 10 28 26 62 108 229 59 442 -114 493 -60 18 -110 18 -192 0z m225 -53
c19 -9 48 -34 65 -55 26 -33 30 -46 34 -120 5 -104 -8 -169 -54 -261 -47 -93
-52 -98 -131 -126 -144 -52 -265 -26 -321 70 -24 40 -27 55 -27 135 1 69 6
103 24 147 38 97 137 190 231 219 47 14 143 10 179 -9z"/>
<path d="M2496 2423 c-4 -5 -46 -11 -92 -14 -74 -5 -87 -8 -113 -33 -54 -52
-76 -118 -76 -231 0 -114 15 -152 76 -193 27 -19 43 -23 78 -19 79 9 132 66
139 152 5 67 -9 105 -55 145 -29 26 -42 30 -90 30 -53 0 -58 -3 -95 -41 -38
-40 -39 -40 -33 -12 26 113 52 138 155 148 79 7 99 16 119 53 11 21 3 31 -13
15z m-91 -207 c62 -62 57 -231 -7 -255 -31 -11 -73 5 -93 35 -37 56 -36 184 0
224 25 27 70 25 100 -4z"/>
<path d="M3495 2245 c-38 -32 -97 -51 -212 -69 -113 -18 -153 -36 -198 -89
-30 -35 -48 -73 -107 -226 -7 -18 -12 -21 -20 -13 -7 7 -32 12 -57 12 -75 0
-143 -41 -263 -162 -79 -78 -117 -110 -145 -117 -46 -13 -54 -13 -72 -2 -12 8
-9 15 14 43 37 44 75 126 75 163 0 52 -24 75 -79 75 -68 0 -141 -40 -233 -128
-68 -65 -83 -75 -122 -79 -41 -5 -45 -3 -48 18 -3 17 13 48 49 100 29 42 50
79 47 81 -2 3 -18 3 -34 -1 -22 -5 -45 -29 -100 -106 -109 -151 -219 -255
-269 -255 -46 0 -14 77 101 248 38 57 68 106 65 108 -10 10 -85 6 -108 -6 -51
-27 -115 -89 -225 -217 -63 -73 -124 -137 -134 -143 -29 -15 -55 -12 -74 9
-27 30 -17 64 22 75 33 9 47 35 40 73 -6 32 -54 29 -88 -6 -65 -64 -23 -181
64 -181 45 0 89 39 218 191 96 115 174 183 223 195 29 7 27 4 -28 -55 -119
-129 -185 -238 -173 -284 13 -54 81 -59 151 -11 41 28 56 27 25 -1 -28 -25
-25 -35 10 -35 27 0 39 11 97 91 54 73 71 89 87 85 12 -2 41 -1 66 4 25 4 46
7 48 6 1 -2 -7 -23 -18 -47 -25 -56 -26 -111 -2 -132 44 -40 160 -9 248 67 36
31 43 33 96 28 39 -3 66 0 87 11 l30 15 -6 -44 c-8 -62 14 -94 66 -94 100 0
274 52 323 97 16 14 18 13 24 -11 9 -38 59 -76 99 -76 44 0 74 26 195 170 55
65 118 134 142 155 40 35 106 71 114 63 2 -2 -24 -35 -58 -73 -91 -105 -158
-211 -158 -251 0 -68 72 -82 153 -28 38 25 41 18 9 -18 -14 -17 -12 -18 21
-18 34 0 40 6 104 94 53 73 73 92 84 85 8 -4 21 -7 29 -5 8 2 32 7 52 11 l37
6 -19 -43 c-24 -53 -26 -121 -4 -142 39 -39 166 -4 252 69 34 29 42 32 92 28
44 -3 64 0 99 19 46 23 71 51 58 64 -4 4 -18 -4 -32 -18 -13 -13 -42 -30 -63
-36 -46 -14 -53 -14 -70 -3 -11 6 -6 19 22 58 20 28 43 70 52 94 61 174 -132
172 -307 -3 -62 -62 -74 -70 -118 -75 -49 -6 -49 -5 -47 23 1 17 21 57 49 95
26 37 47 69 47 73 0 3 -13 6 -29 6 -25 0 -39 -14 -115 -119 -106 -146 -207
-241 -258 -241 -44 0 -7 90 101 250 l71 105 -32 7 c-73 15 -150 -44 -325 -250
-61 -70 -114 -124 -128 -128 -33 -8 -60 3 -73 30 -13 29 -3 45 40 65 36 17 48
52 28 77 -22 26 -50 15 -107 -42 -53 -52 -115 -91 -172 -109 -18 -5 -13 2 20
31 106 95 138 145 180 279 81 262 140 324 309 325 36 0 94 5 130 10 54 7 70
14 93 40 17 19 27 42 27 60 0 36 -15 38 -55 5z m-1025 -422 c10 -9 2 -80 -13
-109 -13 -25 -21 -30 -44 -27 -19 3 -38 -3 -56 -17 -30 -24 -34 -46 -13 -76
13 -18 11 -22 -22 -50 -94 -79 -172 -85 -172 -14 0 44 46 125 109 193 85 90
175 133 211 100z m459 1 c19 -14 22 -22 16 -52 -26 -142 -251 -342 -313 -280
-51 51 86 260 211 322 60 31 56 30 86 10z m1192 6 c40 -22 8 -157 -34 -144
-51 16 -105 -45 -78 -88 10 -17 9 -24 -6 -40 -29 -34 -105 -78 -132 -78 -45 0
-54 13 -49 65 11 89 126 228 230 275 51 23 45 22 69 10z"/>
<path d="M1963 2240 c-44 -26 -64 -70 -65 -138 0 -68 10 -98 47 -134 62 -62
156 -42 201 44 24 46 15 54 -17 15 -26 -31 -37 -37 -70 -37 -51 0 -97 40 -109
94 -5 22 -7 44 -4 48 3 4 52 8 110 8 87 0 104 2 104 15 0 25 -28 72 -52 89
-31 22 -106 20 -145 -4z m106 -26 c37 -47 29 -54 -54 -54 -67 0 -74 2 -68 18
22 62 87 81 122 36z"/>
<path d="M2710 2250 c-109 -7 -123 -11 -139 -47 -16 -35 0 -73 40 -97 l30 -18
-25 -34 c-15 -19 -38 -50 -52 -69 -14 -19 -30 -32 -35 -29 -5 3 -9 0 -9 -5 0
-6 18 -11 39 -11 37 0 41 4 87 70 58 86 74 89 74 16 0 -44 -4 -56 -22 -69 -22
-15 -19 -16 55 -16 42 -1 77 1 77 4 0 3 -11 10 -25 15 l-26 10 3 132 c3 130 4
133 26 136 12 2 20 8 17 13 -4 5 -9 8 -13 7 -4 -1 -50 -4 -102 -8z m10 -86 c0
-56 -2 -65 -16 -60 -9 3 -20 6 -25 6 -18 0 -49 41 -49 64 0 33 25 56 61 56
l29 0 0 -66z"/>
<path d="M1574 2226 c-3 -14 -4 -33 -2 -43 3 -14 7 -12 18 12 13 25 22 30 58
33 l42 3 0 -120 c0 -127 -4 -151 -25 -151 -8 0 -17 -4 -20 -10 -4 -6 24 -10
77 -9 69 1 79 3 56 12 -34 13 -38 29 -38 165 l0 112 40 0 c35 0 43 -5 60 -32
l20 -33 0 27 c0 58 -1 58 -146 58 -133 0 -134 0 -140 -24z"/>
</g>
</svg>
